<svg xmlns="http://www.w3.org/2000/svg" xmlns:xlink="http://www.w3.org/1999/xlink" width="28" height="28" preserveAspectRatio="xMidYMid meet" viewBox="0 0 28 28" style="-ms-transform: rotate(360deg); -webkit-transform: rotate(360deg); transform: rotate(360deg);"><g fill="none"><path d="M14.75 4.25a1 1 0 0 1 1-1h8a1 1 0 0 1 1 1v8a1 1 0 1 1-2 0V6.664l-9.043 9.043a1 1 0 0 1-1.414-1.414l9.043-9.043H15.75a1 1 0 0 1-1-1z" fill="#fff"/><path d="M9.25 7a3 3 0 0 0-3 3v9a3 3 0 0 0 3 3H18a3 3 0 0 0 3-3v-3a1 1 0 1 1 2 0v3a5 5 0 0 1-5 5H9.25a5 5 0 0 1-5-5v-9a5 5 0 0 1 5-5H12a1 1 0 1 1 0 2H9.25z" fill="#fff"/></g><rect x="0" y="0" width="28" height="28" fill="rgba(0, 0, 0, 0)" /></svg>